<?xml version="1.0" encoding="UTF-8" standalone="no"?>
<!DOCTYPE svg PUBLIC "-//W3C//DTD SVG 1.1//EN"
 "http://www.w3.org/Graphics/SVG/1.1/DTD/svg11.dtd">
<!-- Generated by graphviz version 2.38.0 (20140413.2041)
 -->
<!-- Title: G Pages: 1 -->
<svg width="301pt" height="215pt"
 viewBox="0.00 0.00 300.56 215.00" xmlns="http://www.w3.org/2000/svg" xmlns:xlink="http://www.w3.org/1999/xlink">
<g id="graph0" class="graph" transform="scale(1 1) rotate(0) translate(4 211)">
<title>G</title>
<polygon fill="white" stroke="none" points="-4,4 -4,-211 296.556,-211 296.556,4 -4,4"/>
<!-- 4849522952 -->
<g id="node1" class="node"><title>4849522952</title>
<polygon fill="none" stroke="black" points="0,-162.5 0,-206.5 292.556,-206.5 292.556,-162.5 0,-162.5"/>
<text text-anchor="middle" x="83.6191" y="-180.3" font-family="Times,serif" font-size="14.00">dense_1_input: InputLayer</text>
<polyline fill="none" stroke="black" points="167.238,-162.5 167.238,-206.5 "/>
<text text-anchor="middle" x="195.073" y="-191.3" font-family="Times,serif" font-size="14.00">input:</text>
<polyline fill="none" stroke="black" points="167.238,-184.5 222.907,-184.5 "/>
<text text-anchor="middle" x="195.073" y="-169.3" font-family="Times,serif" font-size="14.00">output:</text>
<polyline fill="none" stroke="black" points="222.907,-162.5 222.907,-206.5 "/>
<text text-anchor="middle" x="257.731" y="-191.3" font-family="Times,serif" font-size="14.00">(None, 4)</text>
<polyline fill="none" stroke="black" points="222.907,-184.5 292.556,-184.5 "/>
<text text-anchor="middle" x="257.731" y="-169.3" font-family="Times,serif" font-size="14.00">(None, 4)</text>
</g>
<!-- 4849634272 -->
<g id="node2" class="node"><title>4849634272</title>
<polygon fill="none" stroke="black" points="31.4932,-81.5 31.4932,-125.5 261.062,-125.5 261.062,-81.5 31.4932,-81.5"/>
<text text-anchor="middle" x="83.6191" y="-99.3" font-family="Times,serif" font-size="14.00">dense_1: Dense</text>
<polyline fill="none" stroke="black" points="135.745,-81.5 135.745,-125.5 "/>
<text text-anchor="middle" x="163.58" y="-110.3" font-family="Times,serif" font-size="14.00">input:</text>
<polyline fill="none" stroke="black" points="135.745,-103.5 191.414,-103.5 "/>
<text text-anchor="middle" x="163.58" y="-88.3" font-family="Times,serif" font-size="14.00">output:</text>
<polyline fill="none" stroke="black" points="191.414,-81.5 191.414,-125.5 "/>
<text text-anchor="middle" x="226.238" y="-110.3" font-family="Times,serif" font-size="14.00">(None, 4)</text>
<polyline fill="none" stroke="black" points="191.414,-103.5 261.062,-103.5 "/>
<text text-anchor="middle" x="226.238" y="-88.3" font-family="Times,serif" font-size="14.00">(None, 2)</text>
</g>
<!-- 4849522952&#45;&gt;4849634272 -->
<g id="edge1" class="edge"><title>4849522952&#45;&gt;4849634272</title>
<path fill="none" stroke="black" d="M146.278,-162.329C146.278,-154.183 146.278,-144.699 146.278,-135.797"/>
<polygon fill="black" stroke="black" points="149.778,-135.729 146.278,-125.729 142.778,-135.729 149.778,-135.729"/>
</g>
<!-- 4849634552 -->
<g id="node3" class="node"><title>4849634552</title>
<polygon fill="none" stroke="black" points="8.15869,-0.5 8.15869,-44.5 284.397,-44.5 284.397,-0.5 8.15869,-0.5"/>
<text text-anchor="middle" x="83.6191" y="-18.3" font-family="Times,serif" font-size="14.00">activation_1: Activation</text>
<polyline fill="none" stroke="black" points="159.08,-0.5 159.08,-44.5 "/>
<text text-anchor="middle" x="186.914" y="-29.3" font-family="Times,serif" font-size="14.00">input:</text>
<polyline fill="none" stroke="black" points="159.08,-22.5 214.749,-22.5 "/>
<text text-anchor="middle" x="186.914" y="-7.3" font-family="Times,serif" font-size="14.00">output:</text>
<polyline fill="none" stroke="black" points="214.749,-0.5 214.749,-44.5 "/>
<text text-anchor="middle" x="249.573" y="-29.3" font-family="Times,serif" font-size="14.00">(None, 2)</text>
<polyline fill="none" stroke="black" points="214.749,-22.5 284.397,-22.5 "/>
<text text-anchor="middle" x="249.573" y="-7.3" font-family="Times,serif" font-size="14.00">(None, 2)</text>
</g>
<!-- 4849634272&#45;&gt;4849634552 -->
<g id="edge2" class="edge"><title>4849634272&#45;&gt;4849634552</title>
<path fill="none" stroke="black" d="M146.278,-81.3294C146.278,-73.1826 146.278,-63.6991 146.278,-54.7971"/>
<polygon fill="black" stroke="black" points="149.778,-54.729 146.278,-44.729 142.778,-54.729 149.778,-54.729"/>
</g>
</g>
</svg>
