<?xml version="1.0" encoding="UTF-8" standalone="no"?>
<!DOCTYPE svg PUBLIC "-//W3C//DTD SVG 1.1//EN"
 "http://www.w3.org/Graphics/SVG/1.1/DTD/svg11.dtd">
<!-- Generated by graphviz version 2.38.0 (20140413.2041)
 -->
<!-- Title: Tree Pages: 1 -->
<svg width="845pt" height="642pt"
 viewBox="0.00 0.00 844.84 642.00" xmlns="http://www.w3.org/2000/svg" xmlns:xlink="http://www.w3.org/1999/xlink">
<g id="graph0" class="graph" transform="scale(1 1) rotate(0) translate(4 638)">
<title>Tree</title>
<polygon fill="white" stroke="none" points="-4,4 -4,-638 840.84,-638 840.84,4 -4,4"/>
<!-- 0 -->
<g id="node1" class="node"><title>0</title>
<path fill="#399de5" fill-opacity="0.172549" stroke="black" d="M471.238,-634C471.238,-634 336.602,-634 336.602,-634 330.602,-634 324.602,-628 324.602,-622 324.602,-622 324.602,-568 324.602,-568 324.602,-562 330.602,-556 336.602,-556 336.602,-556 471.238,-556 471.238,-556 477.238,-556 483.238,-562 483.238,-568 483.238,-568 483.238,-622 483.238,-622 483.238,-628 477.238,-634 471.238,-634"/>
<text text-anchor="start" x="332.761" y="-618.8" font-family="Helvetica,sans-Serif" font-size="14.00">Milliseconds ≤ 53475.0</text>
<text text-anchor="start" x="367.529" y="-604.8" font-family="Helvetica,sans-Serif" font-size="14.00">gini = 0.495</text>
<text text-anchor="start" x="362.091" y="-590.8" font-family="Helvetica,sans-Serif" font-size="14.00">samples = 42</text>
<text text-anchor="start" x="355.856" y="-576.8" font-family="Helvetica,sans-Serif" font-size="14.00">value = [19, 23]</text>
<text text-anchor="start" x="356" y="-562.8" font-family="Helvetica,sans-Serif" font-size="14.00">class = World 2</text>
</g>
<!-- 1 -->
<g id="node2" class="node"><title>1</title>
<path fill="#e58139" fill-opacity="0.686275" stroke="black" d="M381.238,-520C381.238,-520 246.602,-520 246.602,-520 240.602,-520 234.602,-514 234.602,-508 234.602,-508 234.602,-454 234.602,-454 234.602,-448 240.602,-442 246.602,-442 246.602,-442 381.238,-442 381.238,-442 387.238,-442 393.238,-448 393.238,-454 393.238,-454 393.238,-508 393.238,-508 393.238,-514 387.238,-520 381.238,-520"/>
<text text-anchor="start" x="242.761" y="-504.8" font-family="Helvetica,sans-Serif" font-size="14.00">Milliseconds ≤ 40335.0</text>
<text text-anchor="start" x="277.529" y="-490.8" font-family="Helvetica,sans-Serif" font-size="14.00">gini = 0.363</text>
<text text-anchor="start" x="272.091" y="-476.8" font-family="Helvetica,sans-Serif" font-size="14.00">samples = 21</text>
<text text-anchor="start" x="269.75" y="-462.8" font-family="Helvetica,sans-Serif" font-size="14.00">value = [16, 5]</text>
<text text-anchor="start" x="266" y="-448.8" font-family="Helvetica,sans-Serif" font-size="14.00">class = World 1</text>
</g>
<!-- 0&#45;&gt;1 -->
<g id="edge1" class="edge"><title>0&#45;&gt;1</title>
<path fill="none" stroke="black" d="M373.199,-555.769C366.031,-546.849 358.323,-537.257 350.915,-528.038"/>
<polygon fill="black" stroke="black" points="353.495,-525.661 344.503,-520.058 348.038,-530.046 353.495,-525.661"/>
<text text-anchor="middle" x="341.796" y="-540.712" font-family="Helvetica,sans-Serif" font-size="14.00">True</text>
</g>
<!-- 12 -->
<g id="node13" class="node"><title>12</title>
<path fill="#399de5" fill-opacity="0.831373" stroke="black" d="M565.023,-520C565.023,-520 422.816,-520 422.816,-520 416.816,-520 410.816,-514 410.816,-508 410.816,-508 410.816,-454 410.816,-454 410.816,-448 416.816,-442 422.816,-442 422.816,-442 565.023,-442 565.023,-442 571.023,-442 577.023,-448 577.023,-454 577.023,-454 577.023,-508 577.023,-508 577.023,-514 571.023,-520 565.023,-520"/>
<text text-anchor="start" x="418.868" y="-504.8" font-family="Helvetica,sans-Serif" font-size="14.00">Milliseconds ≤ 103308.5</text>
<text text-anchor="start" x="457.529" y="-490.8" font-family="Helvetica,sans-Serif" font-size="14.00">gini = 0.245</text>
<text text-anchor="start" x="452.091" y="-476.8" font-family="Helvetica,sans-Serif" font-size="14.00">samples = 21</text>
<text text-anchor="start" x="449.75" y="-462.8" font-family="Helvetica,sans-Serif" font-size="14.00">value = [3, 18]</text>
<text text-anchor="start" x="446" y="-448.8" font-family="Helvetica,sans-Serif" font-size="14.00">class = World 2</text>
</g>
<!-- 0&#45;&gt;12 -->
<g id="edge12" class="edge"><title>0&#45;&gt;12</title>
<path fill="none" stroke="black" d="M434.641,-555.769C441.809,-546.849 449.517,-537.257 456.925,-528.038"/>
<polygon fill="black" stroke="black" points="459.802,-530.046 463.337,-520.058 454.345,-525.661 459.802,-530.046"/>
<text text-anchor="middle" x="466.044" y="-540.712" font-family="Helvetica,sans-Serif" font-size="14.00">False</text>
</g>
<!-- 2 -->
<g id="node3" class="node"><title>2</title>
<path fill="#e58139" stroke="black" d="M220.76,-399C220.76,-399 133.08,-399 133.08,-399 127.08,-399 121.08,-393 121.08,-387 121.08,-387 121.08,-347 121.08,-347 121.08,-341 127.08,-335 133.08,-335 133.08,-335 220.76,-335 220.76,-335 226.76,-335 232.76,-341 232.76,-347 232.76,-347 232.76,-387 232.76,-387 232.76,-393 226.76,-399 220.76,-399"/>
<text text-anchor="start" x="148.315" y="-383.8" font-family="Helvetica,sans-Serif" font-size="14.00">gini = 0.0</text>
<text text-anchor="start" x="138.984" y="-369.8" font-family="Helvetica,sans-Serif" font-size="14.00">samples = 9</text>
<text text-anchor="start" x="136.643" y="-355.8" font-family="Helvetica,sans-Serif" font-size="14.00">value = [9, 0]</text>
<text text-anchor="start" x="129" y="-341.8" font-family="Helvetica,sans-Serif" font-size="14.00">class = World 1</text>
</g>
<!-- 1&#45;&gt;2 -->
<g id="edge2" class="edge"><title>1&#45;&gt;2</title>
<path fill="none" stroke="black" d="M267.155,-441.769C252.767,-430.006 236.95,-417.076 222.633,-405.371"/>
<polygon fill="black" stroke="black" points="224.809,-402.63 214.852,-399.01 220.379,-408.049 224.809,-402.63"/>
</g>
<!-- 3 -->
<g id="node4" class="node"><title>3</title>
<path fill="#e58139" fill-opacity="0.286275" stroke="black" d="M383.517,-406C383.517,-406 262.323,-406 262.323,-406 256.323,-406 250.323,-400 250.323,-394 250.323,-394 250.323,-340 250.323,-340 250.323,-334 256.323,-328 262.323,-328 262.323,-328 383.517,-328 383.517,-328 389.517,-328 395.517,-334 395.517,-340 395.517,-340 395.517,-394 395.517,-394 395.517,-400 389.517,-406 383.517,-406"/>
<text text-anchor="start" x="258.372" y="-390.8" font-family="Helvetica,sans-Serif" font-size="14.00">PeakDilation ≤ 4.885</text>
<text text-anchor="start" x="286.529" y="-376.8" font-family="Helvetica,sans-Serif" font-size="14.00">gini = 0.486</text>
<text text-anchor="start" x="281.091" y="-362.8" font-family="Helvetica,sans-Serif" font-size="14.00">samples = 12</text>
<text text-anchor="start" x="282.643" y="-348.8" font-family="Helvetica,sans-Serif" font-size="14.00">value = [7, 5]</text>
<text text-anchor="start" x="275" y="-334.8" font-family="Helvetica,sans-Serif" font-size="14.00">class = World 1</text>
</g>
<!-- 1&#45;&gt;3 -->
<g id="edge3" class="edge"><title>1&#45;&gt;3</title>
<path fill="none" stroke="black" d="M316.992,-441.769C317.651,-433.57 318.355,-424.803 319.04,-416.28"/>
<polygon fill="black" stroke="black" points="322.549,-416.307 319.862,-406.058 315.572,-415.746 322.549,-416.307"/>
</g>
<!-- 4 -->
<g id="node5" class="node"><title>4</title>
<path fill="#e58139" fill-opacity="0.800000" stroke="black" d="M247.238,-292C247.238,-292 112.602,-292 112.602,-292 106.602,-292 100.602,-286 100.602,-280 100.602,-280 100.602,-226 100.602,-226 100.602,-220 106.602,-214 112.602,-214 112.602,-214 247.238,-214 247.238,-214 253.238,-214 259.238,-220 259.238,-226 259.238,-226 259.238,-280 259.238,-280 259.238,-286 253.238,-292 247.238,-292"/>
<text text-anchor="start" x="108.761" y="-276.8" font-family="Helvetica,sans-Serif" font-size="14.00">Milliseconds ≤ 43878.5</text>
<text text-anchor="start" x="143.529" y="-262.8" font-family="Helvetica,sans-Serif" font-size="14.00">gini = 0.278</text>
<text text-anchor="start" x="141.984" y="-248.8" font-family="Helvetica,sans-Serif" font-size="14.00">samples = 6</text>
<text text-anchor="start" x="139.643" y="-234.8" font-family="Helvetica,sans-Serif" font-size="14.00">value = [5, 1]</text>
<text text-anchor="start" x="132" y="-220.8" font-family="Helvetica,sans-Serif" font-size="14.00">class = World 1</text>
</g>
<!-- 3&#45;&gt;4 -->
<g id="edge4" class="edge"><title>3&#45;&gt;4</title>
<path fill="none" stroke="black" d="M274.107,-327.769C262.028,-318.308 248.984,-308.092 236.566,-298.366"/>
<polygon fill="black" stroke="black" points="238.543,-295.469 228.512,-292.058 234.227,-300.98 238.543,-295.469"/>
</g>
<!-- 7 -->
<g id="node8" class="node"><title>7</title>
<path fill="#399de5" fill-opacity="0.498039" stroke="black" d="M376.76,-292C376.76,-292 289.08,-292 289.08,-292 283.08,-292 277.08,-286 277.08,-280 277.08,-280 277.08,-226 277.08,-226 277.08,-220 283.08,-214 289.08,-214 289.08,-214 376.76,-214 376.76,-214 382.76,-214 388.76,-220 388.76,-226 388.76,-226 388.76,-280 388.76,-280 388.76,-286 382.76,-292 376.76,-292"/>
<text text-anchor="start" x="287.061" y="-276.8" font-family="Helvetica,sans-Serif" font-size="14.00">MPDC ≤ 3.467</text>
<text text-anchor="start" x="296.529" y="-262.8" font-family="Helvetica,sans-Serif" font-size="14.00">gini = 0.444</text>
<text text-anchor="start" x="294.984" y="-248.8" font-family="Helvetica,sans-Serif" font-size="14.00">samples = 6</text>
<text text-anchor="start" x="292.643" y="-234.8" font-family="Helvetica,sans-Serif" font-size="14.00">value = [2, 4]</text>
<text text-anchor="start" x="285" y="-220.8" font-family="Helvetica,sans-Serif" font-size="14.00">class = World 2</text>
</g>
<!-- 3&#45;&gt;7 -->
<g id="edge7" class="edge"><title>3&#45;&gt;7</title>
<path fill="none" stroke="black" d="M326.333,-327.769C327.065,-319.57 327.848,-310.803 328.609,-302.28"/>
<polygon fill="black" stroke="black" points="332.119,-302.33 329.522,-292.058 325.146,-301.708 332.119,-302.33"/>
</g>
<!-- 5 -->
<g id="node6" class="node"><title>5</title>
<path fill="#399de5" stroke="black" d="M99.7599,-171C99.7599,-171 12.08,-171 12.08,-171 6.07996,-171 0.0799636,-165 0.0799636,-159 0.0799636,-159 0.0799636,-119 0.0799636,-119 0.0799636,-113 6.07996,-107 12.08,-107 12.08,-107 99.7599,-107 99.7599,-107 105.76,-107 111.76,-113 111.76,-119 111.76,-119 111.76,-159 111.76,-159 111.76,-165 105.76,-171 99.7599,-171"/>
<text text-anchor="start" x="27.3149" y="-155.8" font-family="Helvetica,sans-Serif" font-size="14.00">gini = 0.0</text>
<text text-anchor="start" x="17.9839" y="-141.8" font-family="Helvetica,sans-Serif" font-size="14.00">samples = 1</text>
<text text-anchor="start" x="15.6426" y="-127.8" font-family="Helvetica,sans-Serif" font-size="14.00">value = [0, 1]</text>
<text text-anchor="start" x="8" y="-113.8" font-family="Helvetica,sans-Serif" font-size="14.00">class = World 2</text>
</g>
<!-- 4&#45;&gt;5 -->
<g id="edge5" class="edge"><title>4&#45;&gt;5</title>
<path fill="none" stroke="black" d="M137.593,-213.769C124.811,-202.224 110.784,-189.555 98.0167,-178.023"/>
<polygon fill="black" stroke="black" points="100.02,-175.116 90.2525,-171.01 95.3275,-180.31 100.02,-175.116"/>
</g>
<!-- 6 -->
<g id="node7" class="node"><title>6</title>
<path fill="#e58139" stroke="black" d="M229.76,-171C229.76,-171 142.08,-171 142.08,-171 136.08,-171 130.08,-165 130.08,-159 130.08,-159 130.08,-119 130.08,-119 130.08,-113 136.08,-107 142.08,-107 142.08,-107 229.76,-107 229.76,-107 235.76,-107 241.76,-113 241.76,-119 241.76,-119 241.76,-159 241.76,-159 241.76,-165 235.76,-171 229.76,-171"/>
<text text-anchor="start" x="157.315" y="-155.8" font-family="Helvetica,sans-Serif" font-size="14.00">gini = 0.0</text>
<text text-anchor="start" x="147.984" y="-141.8" font-family="Helvetica,sans-Serif" font-size="14.00">samples = 5</text>
<text text-anchor="start" x="145.643" y="-127.8" font-family="Helvetica,sans-Serif" font-size="14.00">value = [5, 0]</text>
<text text-anchor="start" x="138" y="-113.8" font-family="Helvetica,sans-Serif" font-size="14.00">class = World 1</text>
</g>
<!-- 4&#45;&gt;6 -->
<g id="edge6" class="edge"><title>4&#45;&gt;6</title>
<path fill="none" stroke="black" d="M181.968,-213.769C182.528,-203.313 183.138,-191.935 183.707,-181.315"/>
<polygon fill="black" stroke="black" points="187.219,-181.183 184.259,-171.01 180.229,-180.808 187.219,-181.183"/>
</g>
<!-- 8 -->
<g id="node9" class="node"><title>8</title>
<path fill="#399de5" stroke="black" d="M370.76,-171C370.76,-171 283.08,-171 283.08,-171 277.08,-171 271.08,-165 271.08,-159 271.08,-159 271.08,-119 271.08,-119 271.08,-113 277.08,-107 283.08,-107 283.08,-107 370.76,-107 370.76,-107 376.76,-107 382.76,-113 382.76,-119 382.76,-119 382.76,-159 382.76,-159 382.76,-165 376.76,-171 370.76,-171"/>
<text text-anchor="start" x="298.315" y="-155.8" font-family="Helvetica,sans-Serif" font-size="14.00">gini = 0.0</text>
<text text-anchor="start" x="288.984" y="-141.8" font-family="Helvetica,sans-Serif" font-size="14.00">samples = 3</text>
<text text-anchor="start" x="286.643" y="-127.8" font-family="Helvetica,sans-Serif" font-size="14.00">value = [0, 3]</text>
<text text-anchor="start" x="279" y="-113.8" font-family="Helvetica,sans-Serif" font-size="14.00">class = World 2</text>
</g>
<!-- 7&#45;&gt;8 -->
<g id="edge8" class="edge"><title>7&#45;&gt;8</title>
<path fill="none" stroke="black" d="M330.872,-213.769C330.312,-203.313 329.702,-191.935 329.133,-181.315"/>
<polygon fill="black" stroke="black" points="332.611,-180.808 328.581,-171.01 325.621,-181.183 332.611,-180.808"/>
</g>
<!-- 9 -->
<g id="node10" class="node"><title>9</title>
<path fill="#e58139" fill-opacity="0.498039" stroke="black" d="M526.731,-178C526.731,-178 413.109,-178 413.109,-178 407.109,-178 401.109,-172 401.109,-166 401.109,-166 401.109,-112 401.109,-112 401.109,-106 407.109,-100 413.109,-100 413.109,-100 526.731,-100 526.731,-100 532.731,-100 538.731,-106 538.731,-112 538.731,-112 538.731,-166 538.731,-166 538.731,-172 532.731,-178 526.731,-178"/>
<text text-anchor="start" x="409.265" y="-162.8" font-family="Helvetica,sans-Serif" font-size="14.00">PeakDilation ≤ 6.57</text>
<text text-anchor="start" x="433.529" y="-148.8" font-family="Helvetica,sans-Serif" font-size="14.00">gini = 0.444</text>
<text text-anchor="start" x="431.984" y="-134.8" font-family="Helvetica,sans-Serif" font-size="14.00">samples = 3</text>
<text text-anchor="start" x="429.643" y="-120.8" font-family="Helvetica,sans-Serif" font-size="14.00">value = [2, 1]</text>
<text text-anchor="start" x="422" y="-106.8" font-family="Helvetica,sans-Serif" font-size="14.00">class = World 1</text>
</g>
<!-- 7&#45;&gt;9 -->
<g id="edge9" class="edge"><title>7&#45;&gt;9</title>
<path fill="none" stroke="black" d="M379.684,-213.769C391.147,-204.398 403.515,-194.287 415.31,-184.644"/>
<polygon fill="black" stroke="black" points="417.839,-187.098 423.366,-178.058 413.409,-181.678 417.839,-187.098"/>
</g>
<!-- 10 -->
<g id="node11" class="node"><title>10</title>
<path fill="#e58139" stroke="black" d="M448.76,-64C448.76,-64 361.08,-64 361.08,-64 355.08,-64 349.08,-58 349.08,-52 349.08,-52 349.08,-12 349.08,-12 349.08,-6 355.08,-0 361.08,-0 361.08,-0 448.76,-0 448.76,-0 454.76,-0 460.76,-6 460.76,-12 460.76,-12 460.76,-52 460.76,-52 460.76,-58 454.76,-64 448.76,-64"/>
<text text-anchor="start" x="376.315" y="-48.8" font-family="Helvetica,sans-Serif" font-size="14.00">gini = 0.0</text>
<text text-anchor="start" x="366.984" y="-34.8" font-family="Helvetica,sans-Serif" font-size="14.00">samples = 2</text>
<text text-anchor="start" x="364.643" y="-20.8" font-family="Helvetica,sans-Serif" font-size="14.00">value = [2, 0]</text>
<text text-anchor="start" x="357" y="-6.8" font-family="Helvetica,sans-Serif" font-size="14.00">class = World 1</text>
</g>
<!-- 9&#45;&gt;10 -->
<g id="edge10" class="edge"><title>9&#45;&gt;10</title>
<path fill="none" stroke="black" d="M446.27,-99.7956C440.825,-91 435.021,-81.625 429.536,-72.765"/>
<polygon fill="black" stroke="black" points="432.422,-70.7776 424.183,-64.1172 426.471,-74.4621 432.422,-70.7776"/>
</g>
<!-- 11 -->
<g id="node12" class="node"><title>11</title>
<path fill="#399de5" stroke="black" d="M578.76,-64C578.76,-64 491.08,-64 491.08,-64 485.08,-64 479.08,-58 479.08,-52 479.08,-52 479.08,-12 479.08,-12 479.08,-6 485.08,-0 491.08,-0 491.08,-0 578.76,-0 578.76,-0 584.76,-0 590.76,-6 590.76,-12 590.76,-12 590.76,-52 590.76,-52 590.76,-58 584.76,-64 578.76,-64"/>
<text text-anchor="start" x="506.315" y="-48.8" font-family="Helvetica,sans-Serif" font-size="14.00">gini = 0.0</text>
<text text-anchor="start" x="496.984" y="-34.8" font-family="Helvetica,sans-Serif" font-size="14.00">samples = 1</text>
<text text-anchor="start" x="494.643" y="-20.8" font-family="Helvetica,sans-Serif" font-size="14.00">value = [0, 1]</text>
<text text-anchor="start" x="487" y="-6.8" font-family="Helvetica,sans-Serif" font-size="14.00">class = World 2</text>
</g>
<!-- 9&#45;&gt;11 -->
<g id="edge11" class="edge"><title>9&#45;&gt;11</title>
<path fill="none" stroke="black" d="M493.57,-99.7956C499.015,-91 504.819,-81.625 510.303,-72.765"/>
<polygon fill="black" stroke="black" points="513.369,-74.4621 515.657,-64.1172 507.417,-70.7776 513.369,-74.4621"/>
</g>
<!-- 13 -->
<g id="node14" class="node"><title>13</title>
<path fill="#399de5" stroke="black" d="M529.76,-399C529.76,-399 442.08,-399 442.08,-399 436.08,-399 430.08,-393 430.08,-387 430.08,-387 430.08,-347 430.08,-347 430.08,-341 436.08,-335 442.08,-335 442.08,-335 529.76,-335 529.76,-335 535.76,-335 541.76,-341 541.76,-347 541.76,-347 541.76,-387 541.76,-387 541.76,-393 535.76,-399 529.76,-399"/>
<text text-anchor="start" x="457.315" y="-383.8" font-family="Helvetica,sans-Serif" font-size="14.00">gini = 0.0</text>
<text text-anchor="start" x="444.091" y="-369.8" font-family="Helvetica,sans-Serif" font-size="14.00">samples = 14</text>
<text text-anchor="start" x="441.75" y="-355.8" font-family="Helvetica,sans-Serif" font-size="14.00">value = [0, 14]</text>
<text text-anchor="start" x="438" y="-341.8" font-family="Helvetica,sans-Serif" font-size="14.00">class = World 2</text>
</g>
<!-- 12&#45;&gt;13 -->
<g id="edge13" class="edge"><title>12&#45;&gt;13</title>
<path fill="none" stroke="black" d="M491.189,-441.769C490.442,-431.313 489.63,-419.935 488.871,-409.315"/>
<polygon fill="black" stroke="black" points="492.339,-408.735 488.135,-399.01 485.356,-409.234 492.339,-408.735"/>
</g>
<!-- 14 -->
<g id="node15" class="node"><title>14</title>
<path fill="#399de5" fill-opacity="0.250980" stroke="black" d="M714.023,-406C714.023,-406 571.816,-406 571.816,-406 565.816,-406 559.816,-400 559.816,-394 559.816,-394 559.816,-340 559.816,-340 559.816,-334 565.816,-328 571.816,-328 571.816,-328 714.023,-328 714.023,-328 720.023,-328 726.023,-334 726.023,-340 726.023,-340 726.023,-394 726.023,-394 726.023,-400 720.023,-406 714.023,-406"/>
<text text-anchor="start" x="567.868" y="-390.8" font-family="Helvetica,sans-Serif" font-size="14.00">Milliseconds ≤ 150923.0</text>
<text text-anchor="start" x="610.422" y="-376.8" font-family="Helvetica,sans-Serif" font-size="14.00">gini = 0.49</text>
<text text-anchor="start" x="604.984" y="-362.8" font-family="Helvetica,sans-Serif" font-size="14.00">samples = 7</text>
<text text-anchor="start" x="602.643" y="-348.8" font-family="Helvetica,sans-Serif" font-size="14.00">value = [3, 4]</text>
<text text-anchor="start" x="595" y="-334.8" font-family="Helvetica,sans-Serif" font-size="14.00">class = World 2</text>
</g>
<!-- 12&#45;&gt;14 -->
<g id="edge14" class="edge"><title>12&#45;&gt;14</title>
<path fill="none" stroke="black" d="M544.781,-441.769C557.487,-432.218 571.217,-421.898 584.266,-412.089"/>
<polygon fill="black" stroke="black" points="586.398,-414.865 592.289,-406.058 582.192,-409.269 586.398,-414.865"/>
</g>
<!-- 15 -->
<g id="node16" class="node"><title>15</title>
<path fill="#e58139" fill-opacity="0.666667" stroke="black" d="M695.517,-292C695.517,-292 574.323,-292 574.323,-292 568.323,-292 562.323,-286 562.323,-280 562.323,-280 562.323,-226 562.323,-226 562.323,-220 568.323,-214 574.323,-214 574.323,-214 695.517,-214 695.517,-214 701.517,-214 707.517,-220 707.517,-226 707.517,-226 707.517,-280 707.517,-280 707.517,-286 701.517,-292 695.517,-292"/>
<text text-anchor="start" x="570.372" y="-276.8" font-family="Helvetica,sans-Serif" font-size="14.00">PeakDilation ≤ 3.486</text>
<text text-anchor="start" x="598.529" y="-262.8" font-family="Helvetica,sans-Serif" font-size="14.00">gini = 0.375</text>
<text text-anchor="start" x="596.984" y="-248.8" font-family="Helvetica,sans-Serif" font-size="14.00">samples = 4</text>
<text text-anchor="start" x="594.643" y="-234.8" font-family="Helvetica,sans-Serif" font-size="14.00">value = [3, 1]</text>
<text text-anchor="start" x="587" y="-220.8" font-family="Helvetica,sans-Serif" font-size="14.00">class = World 1</text>
</g>
<!-- 14&#45;&gt;15 -->
<g id="edge15" class="edge"><title>14&#45;&gt;15</title>
<path fill="none" stroke="black" d="M640.189,-327.769C639.603,-319.57 638.977,-310.803 638.368,-302.28"/>
<polygon fill="black" stroke="black" points="641.842,-301.784 637.638,-292.058 634.86,-302.282 641.842,-301.784"/>
</g>
<!-- 18 -->
<g id="node19" class="node"><title>18</title>
<path fill="#399de5" stroke="black" d="M824.76,-285C824.76,-285 737.08,-285 737.08,-285 731.08,-285 725.08,-279 725.08,-273 725.08,-273 725.08,-233 725.08,-233 725.08,-227 731.08,-221 737.08,-221 737.08,-221 824.76,-221 824.76,-221 830.76,-221 836.76,-227 836.76,-233 836.76,-233 836.76,-273 836.76,-273 836.76,-279 830.76,-285 824.76,-285"/>
<text text-anchor="start" x="752.315" y="-269.8" font-family="Helvetica,sans-Serif" font-size="14.00">gini = 0.0</text>
<text text-anchor="start" x="742.984" y="-255.8" font-family="Helvetica,sans-Serif" font-size="14.00">samples = 3</text>
<text text-anchor="start" x="740.643" y="-241.8" font-family="Helvetica,sans-Serif" font-size="14.00">value = [0, 3]</text>
<text text-anchor="start" x="733" y="-227.8" font-family="Helvetica,sans-Serif" font-size="14.00">class = World 2</text>
</g>
<!-- 14&#45;&gt;18 -->
<g id="edge18" class="edge"><title>14&#45;&gt;18</title>
<path fill="none" stroke="black" d="M690.026,-327.769C704.52,-316.006 720.451,-303.076 734.873,-291.371"/>
<polygon fill="black" stroke="black" points="737.152,-294.029 742.711,-285.01 732.741,-288.594 737.152,-294.029"/>
</g>
<!-- 16 -->
<g id="node17" class="node"><title>16</title>
<path fill="#399de5" stroke="black" d="M669.76,-171C669.76,-171 582.08,-171 582.08,-171 576.08,-171 570.08,-165 570.08,-159 570.08,-159 570.08,-119 570.08,-119 570.08,-113 576.08,-107 582.08,-107 582.08,-107 669.76,-107 669.76,-107 675.76,-107 681.76,-113 681.76,-119 681.76,-119 681.76,-159 681.76,-159 681.76,-165 675.76,-171 669.76,-171"/>
<text text-anchor="start" x="597.315" y="-155.8" font-family="Helvetica,sans-Serif" font-size="14.00">gini = 0.0</text>
<text text-anchor="start" x="587.984" y="-141.8" font-family="Helvetica,sans-Serif" font-size="14.00">samples = 1</text>
<text text-anchor="start" x="585.643" y="-127.8" font-family="Helvetica,sans-Serif" font-size="14.00">value = [0, 1]</text>
<text text-anchor="start" x="578" y="-113.8" font-family="Helvetica,sans-Serif" font-size="14.00">class = World 2</text>
</g>
<!-- 15&#45;&gt;16 -->
<g id="edge16" class="edge"><title>15&#45;&gt;16</title>
<path fill="none" stroke="black" d="M631.848,-213.769C630.999,-203.204 630.074,-191.698 629.213,-180.983"/>
<polygon fill="black" stroke="black" points="632.702,-180.698 628.412,-171.01 625.724,-181.258 632.702,-180.698"/>
</g>
<!-- 17 -->
<g id="node18" class="node"><title>17</title>
<path fill="#e58139" stroke="black" d="M799.76,-171C799.76,-171 712.08,-171 712.08,-171 706.08,-171 700.08,-165 700.08,-159 700.08,-159 700.08,-119 700.08,-119 700.08,-113 706.08,-107 712.08,-107 712.08,-107 799.76,-107 799.76,-107 805.76,-107 811.76,-113 811.76,-119 811.76,-119 811.76,-159 811.76,-159 811.76,-165 805.76,-171 799.76,-171"/>
<text text-anchor="start" x="727.315" y="-155.8" font-family="Helvetica,sans-Serif" font-size="14.00">gini = 0.0</text>
<text text-anchor="start" x="717.984" y="-141.8" font-family="Helvetica,sans-Serif" font-size="14.00">samples = 3</text>
<text text-anchor="start" x="715.643" y="-127.8" font-family="Helvetica,sans-Serif" font-size="14.00">value = [3, 0]</text>
<text text-anchor="start" x="708" y="-113.8" font-family="Helvetica,sans-Serif" font-size="14.00">class = World 1</text>
</g>
<!-- 15&#45;&gt;17 -->
<g id="edge17" class="edge"><title>15&#45;&gt;17</title>
<path fill="none" stroke="black" d="M676.223,-213.769C688.696,-202.224 702.383,-189.555 714.842,-178.023"/>
<polygon fill="black" stroke="black" points="717.457,-180.372 722.418,-171.01 712.702,-175.234 717.457,-180.372"/>
</g>
</g>
</svg>
