<?xml version="1.0" encoding="UTF-8" standalone="no"?>
<!DOCTYPE svg PUBLIC "-//W3C//DTD SVG 1.1//EN"
 "http://www.w3.org/Graphics/SVG/1.1/DTD/svg11.dtd">
<!-- Generated by graphviz version 2.38.0 (20140413.2041)
 -->
<!-- Title: Tree Pages: 1 -->
<svg width="731pt" height="756pt"
 viewBox="0.00 0.00 730.84 756.00" xmlns="http://www.w3.org/2000/svg" xmlns:xlink="http://www.w3.org/1999/xlink">
<g id="graph0" class="graph" transform="scale(1 1) rotate(0) translate(4 752)">
<title>Tree</title>
<polygon fill="white" stroke="none" points="-4,4 -4,-752 726.84,-752 726.84,4 -4,4"/>
<!-- 0 -->
<g id="node1" class="node"><title>0</title>
<path fill="none" stroke="black" d="M429.238,-748C429.238,-748 294.602,-748 294.602,-748 288.602,-748 282.602,-742 282.602,-736 282.602,-736 282.602,-682 282.602,-682 282.602,-676 288.602,-670 294.602,-670 294.602,-670 429.238,-670 429.238,-670 435.238,-670 441.238,-676 441.238,-682 441.238,-682 441.238,-736 441.238,-736 441.238,-742 435.238,-748 429.238,-748"/>
<text text-anchor="start" x="290.761" y="-732.8" font-family="Helvetica,sans-Serif" font-size="14.00">Milliseconds ≤ 53475.0</text>
<text text-anchor="start" x="325.529" y="-718.8" font-family="Helvetica,sans-Serif" font-size="14.00">gini = 0.498</text>
<text text-anchor="start" x="320.091" y="-704.8" font-family="Helvetica,sans-Serif" font-size="14.00">samples = 43</text>
<text text-anchor="start" x="313.856" y="-690.8" font-family="Helvetica,sans-Serif" font-size="14.00">value = [20, 23]</text>
<text text-anchor="start" x="314" y="-676.8" font-family="Helvetica,sans-Serif" font-size="14.00">class = World 2</text>
</g>
<!-- 1 -->
<g id="node2" class="node"><title>1</title>
<path fill="none" stroke="black" d="M339.238,-634C339.238,-634 204.602,-634 204.602,-634 198.602,-634 192.602,-628 192.602,-622 192.602,-622 192.602,-568 192.602,-568 192.602,-562 198.602,-556 204.602,-556 204.602,-556 339.238,-556 339.238,-556 345.238,-556 351.238,-562 351.238,-568 351.238,-568 351.238,-622 351.238,-622 351.238,-628 345.238,-634 339.238,-634"/>
<text text-anchor="start" x="200.761" y="-618.8" font-family="Helvetica,sans-Serif" font-size="14.00">Milliseconds ≤ 40335.0</text>
<text text-anchor="start" x="235.529" y="-604.8" font-family="Helvetica,sans-Serif" font-size="14.00">gini = 0.351</text>
<text text-anchor="start" x="230.091" y="-590.8" font-family="Helvetica,sans-Serif" font-size="14.00">samples = 22</text>
<text text-anchor="start" x="227.75" y="-576.8" font-family="Helvetica,sans-Serif" font-size="14.00">value = [17, 5]</text>
<text text-anchor="start" x="224" y="-562.8" font-family="Helvetica,sans-Serif" font-size="14.00">class = World 1</text>
</g>
<!-- 0&#45;&gt;1 -->
<g id="edge1" class="edge"><title>0&#45;&gt;1</title>
<path fill="none" stroke="black" d="M331.199,-669.769C324.031,-660.849 316.323,-651.257 308.915,-642.038"/>
<polygon fill="black" stroke="black" points="311.495,-639.661 302.503,-634.058 306.038,-644.046 311.495,-639.661"/>
<text text-anchor="middle" x="299.796" y="-654.712" font-family="Helvetica,sans-Serif" font-size="14.00">True</text>
</g>
<!-- 14 -->
<g id="node15" class="node"><title>14</title>
<path fill="none" stroke="black" d="M523.023,-634C523.023,-634 380.816,-634 380.816,-634 374.816,-634 368.816,-628 368.816,-622 368.816,-622 368.816,-568 368.816,-568 368.816,-562 374.816,-556 380.816,-556 380.816,-556 523.023,-556 523.023,-556 529.023,-556 535.023,-562 535.023,-568 535.023,-568 535.023,-622 535.023,-622 535.023,-628 529.023,-634 523.023,-634"/>
<text text-anchor="start" x="376.868" y="-618.8" font-family="Helvetica,sans-Serif" font-size="14.00">Milliseconds ≤ 103308.5</text>
<text text-anchor="start" x="415.529" y="-604.8" font-family="Helvetica,sans-Serif" font-size="14.00">gini = 0.245</text>
<text text-anchor="start" x="410.091" y="-590.8" font-family="Helvetica,sans-Serif" font-size="14.00">samples = 21</text>
<text text-anchor="start" x="407.75" y="-576.8" font-family="Helvetica,sans-Serif" font-size="14.00">value = [3, 18]</text>
<text text-anchor="start" x="404" y="-562.8" font-family="Helvetica,sans-Serif" font-size="14.00">class = World 2</text>
</g>
<!-- 0&#45;&gt;14 -->
<g id="edge14" class="edge"><title>0&#45;&gt;14</title>
<path fill="none" stroke="black" d="M392.641,-669.769C399.809,-660.849 407.517,-651.257 414.925,-642.038"/>
<polygon fill="black" stroke="black" points="417.802,-644.046 421.337,-634.058 412.345,-639.661 417.802,-644.046"/>
<text text-anchor="middle" x="424.044" y="-654.712" font-family="Helvetica,sans-Serif" font-size="14.00">False</text>
</g>
<!-- 2 -->
<g id="node3" class="node"><title>2</title>
<path fill="none" stroke="black" d="M169.76,-513C169.76,-513 82.08,-513 82.08,-513 76.08,-513 70.08,-507 70.08,-501 70.08,-501 70.08,-461 70.08,-461 70.08,-455 76.08,-449 82.08,-449 82.08,-449 169.76,-449 169.76,-449 175.76,-449 181.76,-455 181.76,-461 181.76,-461 181.76,-501 181.76,-501 181.76,-507 175.76,-513 169.76,-513"/>
<text text-anchor="start" x="97.3149" y="-497.8" font-family="Helvetica,sans-Serif" font-size="14.00">gini = 0.0</text>
<text text-anchor="start" x="87.9839" y="-483.8" font-family="Helvetica,sans-Serif" font-size="14.00">samples = 9</text>
<text text-anchor="start" x="85.6426" y="-469.8" font-family="Helvetica,sans-Serif" font-size="14.00">value = [9, 0]</text>
<text text-anchor="start" x="78" y="-455.8" font-family="Helvetica,sans-Serif" font-size="14.00">class = World 1</text>
</g>
<!-- 1&#45;&gt;2 -->
<g id="edge2" class="edge"><title>1&#45;&gt;2</title>
<path fill="none" stroke="black" d="M222.083,-555.769C206.749,-544.006 189.894,-531.076 174.636,-519.371"/>
<polygon fill="black" stroke="black" points="176.408,-516.32 166.344,-513.01 172.148,-521.874 176.408,-516.32"/>
</g>
<!-- 3 -->
<g id="node4" class="node"><title>3</title>
<path fill="none" stroke="black" d="M346.238,-520C346.238,-520 211.602,-520 211.602,-520 205.602,-520 199.602,-514 199.602,-508 199.602,-508 199.602,-454 199.602,-454 199.602,-448 205.602,-442 211.602,-442 211.602,-442 346.238,-442 346.238,-442 352.238,-442 358.238,-448 358.238,-454 358.238,-454 358.238,-508 358.238,-508 358.238,-514 352.238,-520 346.238,-520"/>
<text text-anchor="start" x="207.761" y="-504.8" font-family="Helvetica,sans-Serif" font-size="14.00">Milliseconds ≤ 43979.0</text>
<text text-anchor="start" x="242.529" y="-490.8" font-family="Helvetica,sans-Serif" font-size="14.00">gini = 0.473</text>
<text text-anchor="start" x="237.091" y="-476.8" font-family="Helvetica,sans-Serif" font-size="14.00">samples = 13</text>
<text text-anchor="start" x="238.643" y="-462.8" font-family="Helvetica,sans-Serif" font-size="14.00">value = [8, 5]</text>
<text text-anchor="start" x="231" y="-448.8" font-family="Helvetica,sans-Serif" font-size="14.00">class = World 1</text>
</g>
<!-- 1&#45;&gt;3 -->
<g id="edge3" class="edge"><title>1&#45;&gt;3</title>
<path fill="none" stroke="black" d="M274.309,-555.769C274.822,-547.57 275.37,-538.803 275.902,-530.28"/>
<polygon fill="black" stroke="black" points="279.411,-530.257 276.541,-520.058 272.424,-529.821 279.411,-530.257"/>
</g>
<!-- 4 -->
<g id="node5" class="node"><title>4</title>
<path fill="none" stroke="black" d="M225.76,-406C225.76,-406 138.08,-406 138.08,-406 132.08,-406 126.08,-400 126.08,-394 126.08,-394 126.08,-340 126.08,-340 126.08,-334 132.08,-328 138.08,-328 138.08,-328 225.76,-328 225.76,-328 231.76,-328 237.76,-334 237.76,-340 237.76,-340 237.76,-394 237.76,-394 237.76,-400 231.76,-406 225.76,-406"/>
<text text-anchor="start" x="145.402" y="-390.8" font-family="Helvetica,sans-Serif" font-size="14.00">Errors ≤ 0.5</text>
<text text-anchor="start" x="145.529" y="-376.8" font-family="Helvetica,sans-Serif" font-size="14.00">gini = 0.375</text>
<text text-anchor="start" x="143.984" y="-362.8" font-family="Helvetica,sans-Serif" font-size="14.00">samples = 4</text>
<text text-anchor="start" x="141.643" y="-348.8" font-family="Helvetica,sans-Serif" font-size="14.00">value = [1, 3]</text>
<text text-anchor="start" x="134" y="-334.8" font-family="Helvetica,sans-Serif" font-size="14.00">class = World 2</text>
</g>
<!-- 3&#45;&gt;4 -->
<g id="edge4" class="edge"><title>3&#45;&gt;4</title>
<path fill="none" stroke="black" d="M245.809,-441.769C238.006,-432.759 229.609,-423.064 221.55,-413.759"/>
<polygon fill="black" stroke="black" points="224.074,-411.326 214.881,-406.058 218.782,-415.909 224.074,-411.326"/>
</g>
<!-- 7 -->
<g id="node8" class="node"><title>7</title>
<path fill="none" stroke="black" d="M388.517,-406C388.517,-406 267.323,-406 267.323,-406 261.323,-406 255.323,-400 255.323,-394 255.323,-394 255.323,-340 255.323,-340 255.323,-334 261.323,-328 267.323,-328 267.323,-328 388.517,-328 388.517,-328 394.517,-328 400.517,-334 400.517,-340 400.517,-340 400.517,-394 400.517,-394 400.517,-400 394.517,-406 388.517,-406"/>
<text text-anchor="start" x="263.372" y="-390.8" font-family="Helvetica,sans-Serif" font-size="14.00">PeakDilation ≤ 4.958</text>
<text text-anchor="start" x="291.529" y="-376.8" font-family="Helvetica,sans-Serif" font-size="14.00">gini = 0.346</text>
<text text-anchor="start" x="289.984" y="-362.8" font-family="Helvetica,sans-Serif" font-size="14.00">samples = 9</text>
<text text-anchor="start" x="287.643" y="-348.8" font-family="Helvetica,sans-Serif" font-size="14.00">value = [7, 2]</text>
<text text-anchor="start" x="280" y="-334.8" font-family="Helvetica,sans-Serif" font-size="14.00">class = World 1</text>
</g>
<!-- 3&#45;&gt;7 -->
<g id="edge7" class="edge"><title>3&#45;&gt;7</title>
<path fill="none" stroke="black" d="M295.646,-441.769C299.351,-433.299 303.322,-424.225 307.166,-415.438"/>
<polygon fill="black" stroke="black" points="310.468,-416.623 311.269,-406.058 304.055,-413.817 310.468,-416.623"/>
</g>
<!-- 5 -->
<g id="node6" class="node"><title>5</title>
<path fill="none" stroke="black" d="M99.7599,-285C99.7599,-285 12.08,-285 12.08,-285 6.07996,-285 0.0799636,-279 0.0799636,-273 0.0799636,-273 0.0799636,-233 0.0799636,-233 0.0799636,-227 6.07996,-221 12.08,-221 12.08,-221 99.7599,-221 99.7599,-221 105.76,-221 111.76,-227 111.76,-233 111.76,-233 111.76,-273 111.76,-273 111.76,-279 105.76,-285 99.7599,-285"/>
<text text-anchor="start" x="27.3149" y="-269.8" font-family="Helvetica,sans-Serif" font-size="14.00">gini = 0.0</text>
<text text-anchor="start" x="17.9839" y="-255.8" font-family="Helvetica,sans-Serif" font-size="14.00">samples = 3</text>
<text text-anchor="start" x="15.6426" y="-241.8" font-family="Helvetica,sans-Serif" font-size="14.00">value = [0, 3]</text>
<text text-anchor="start" x="8" y="-227.8" font-family="Helvetica,sans-Serif" font-size="14.00">class = World 2</text>
</g>
<!-- 4&#45;&gt;5 -->
<g id="edge5" class="edge"><title>4&#45;&gt;5</title>
<path fill="none" stroke="black" d="M138.91,-327.769C125.799,-316.115 111.4,-303.315 98.3288,-291.697"/>
<polygon fill="black" stroke="black" points="100.606,-289.038 90.8062,-285.01 95.955,-294.27 100.606,-289.038"/>
</g>
<!-- 6 -->
<g id="node7" class="node"><title>6</title>
<path fill="none" stroke="black" d="M229.76,-285C229.76,-285 142.08,-285 142.08,-285 136.08,-285 130.08,-279 130.08,-273 130.08,-273 130.08,-233 130.08,-233 130.08,-227 136.08,-221 142.08,-221 142.08,-221 229.76,-221 229.76,-221 235.76,-221 241.76,-227 241.76,-233 241.76,-233 241.76,-273 241.76,-273 241.76,-279 235.76,-285 229.76,-285"/>
<text text-anchor="start" x="157.315" y="-269.8" font-family="Helvetica,sans-Serif" font-size="14.00">gini = 0.0</text>
<text text-anchor="start" x="147.984" y="-255.8" font-family="Helvetica,sans-Serif" font-size="14.00">samples = 1</text>
<text text-anchor="start" x="145.643" y="-241.8" font-family="Helvetica,sans-Serif" font-size="14.00">value = [1, 0]</text>
<text text-anchor="start" x="138" y="-227.8" font-family="Helvetica,sans-Serif" font-size="14.00">class = World 1</text>
</g>
<!-- 4&#45;&gt;6 -->
<g id="edge6" class="edge"><title>4&#45;&gt;6</title>
<path fill="none" stroke="black" d="M183.285,-327.769C183.659,-317.313 184.065,-305.935 184.444,-295.315"/>
<polygon fill="black" stroke="black" points="187.953,-295.129 184.812,-285.01 180.958,-294.879 187.953,-295.129"/>
</g>
<!-- 8 -->
<g id="node9" class="node"><title>8</title>
<path fill="none" stroke="black" d="M367.76,-285C367.76,-285 280.08,-285 280.08,-285 274.08,-285 268.08,-279 268.08,-273 268.08,-273 268.08,-233 268.08,-233 268.08,-227 274.08,-221 280.08,-221 280.08,-221 367.76,-221 367.76,-221 373.76,-221 379.76,-227 379.76,-233 379.76,-233 379.76,-273 379.76,-273 379.76,-279 373.76,-285 367.76,-285"/>
<text text-anchor="start" x="295.315" y="-269.8" font-family="Helvetica,sans-Serif" font-size="14.00">gini = 0.0</text>
<text text-anchor="start" x="285.984" y="-255.8" font-family="Helvetica,sans-Serif" font-size="14.00">samples = 4</text>
<text text-anchor="start" x="283.643" y="-241.8" font-family="Helvetica,sans-Serif" font-size="14.00">value = [4, 0]</text>
<text text-anchor="start" x="276" y="-227.8" font-family="Helvetica,sans-Serif" font-size="14.00">class = World 1</text>
</g>
<!-- 7&#45;&gt;8 -->
<g id="edge8" class="edge"><title>7&#45;&gt;8</title>
<path fill="none" stroke="black" d="M326.555,-327.769C326.181,-317.313 325.775,-305.935 325.395,-295.315"/>
<polygon fill="black" stroke="black" points="328.882,-294.879 325.027,-285.01 321.887,-295.129 328.882,-294.879"/>
</g>
<!-- 9 -->
<g id="node10" class="node"><title>9</title>
<path fill="none" stroke="black" d="M544.238,-292C544.238,-292 409.602,-292 409.602,-292 403.602,-292 397.602,-286 397.602,-280 397.602,-280 397.602,-226 397.602,-226 397.602,-220 403.602,-214 409.602,-214 409.602,-214 544.238,-214 544.238,-214 550.238,-214 556.238,-220 556.238,-226 556.238,-226 556.238,-280 556.238,-280 556.238,-286 550.238,-292 544.238,-292"/>
<text text-anchor="start" x="405.761" y="-276.8" font-family="Helvetica,sans-Serif" font-size="14.00">Milliseconds ≤ 47770.0</text>
<text text-anchor="start" x="444.422" y="-262.8" font-family="Helvetica,sans-Serif" font-size="14.00">gini = 0.48</text>
<text text-anchor="start" x="438.984" y="-248.8" font-family="Helvetica,sans-Serif" font-size="14.00">samples = 5</text>
<text text-anchor="start" x="436.643" y="-234.8" font-family="Helvetica,sans-Serif" font-size="14.00">value = [3, 2]</text>
<text text-anchor="start" x="429" y="-220.8" font-family="Helvetica,sans-Serif" font-size="14.00">class = World 1</text>
</g>
<!-- 7&#45;&gt;9 -->
<g id="edge9" class="edge"><title>7&#45;&gt;9</title>
<path fill="none" stroke="black" d="M378.781,-327.769C391.487,-318.218 405.217,-307.898 418.266,-298.089"/>
<polygon fill="black" stroke="black" points="420.398,-300.865 426.289,-292.058 416.192,-295.269 420.398,-300.865"/>
</g>
<!-- 10 -->
<g id="node11" class="node"><title>10</title>
<path fill="none" stroke="black" d="M464.517,-178C464.517,-178 343.323,-178 343.323,-178 337.323,-178 331.323,-172 331.323,-166 331.323,-166 331.323,-112 331.323,-112 331.323,-106 337.323,-100 343.323,-100 343.323,-100 464.517,-100 464.517,-100 470.517,-100 476.517,-106 476.517,-112 476.517,-112 476.517,-166 476.517,-166 476.517,-172 470.517,-178 464.517,-178"/>
<text text-anchor="start" x="339.372" y="-162.8" font-family="Helvetica,sans-Serif" font-size="14.00">PeakDilation ≤ 8.009</text>
<text text-anchor="start" x="367.529" y="-148.8" font-family="Helvetica,sans-Serif" font-size="14.00">gini = 0.444</text>
<text text-anchor="start" x="365.984" y="-134.8" font-family="Helvetica,sans-Serif" font-size="14.00">samples = 3</text>
<text text-anchor="start" x="363.643" y="-120.8" font-family="Helvetica,sans-Serif" font-size="14.00">value = [1, 2]</text>
<text text-anchor="start" x="356" y="-106.8" font-family="Helvetica,sans-Serif" font-size="14.00">class = World 2</text>
</g>
<!-- 9&#45;&gt;10 -->
<g id="edge10" class="edge"><title>9&#45;&gt;10</title>
<path fill="none" stroke="black" d="M452.002,-213.769C446.305,-205.029 440.188,-195.645 434.291,-186.597"/>
<polygon fill="black" stroke="black" points="437.119,-184.525 428.726,-178.058 431.254,-188.347 437.119,-184.525"/>
</g>
<!-- 13 -->
<g id="node14" class="node"><title>13</title>
<path fill="none" stroke="black" d="M593.76,-171C593.76,-171 506.08,-171 506.08,-171 500.08,-171 494.08,-165 494.08,-159 494.08,-159 494.08,-119 494.08,-119 494.08,-113 500.08,-107 506.08,-107 506.08,-107 593.76,-107 593.76,-107 599.76,-107 605.76,-113 605.76,-119 605.76,-119 605.76,-159 605.76,-159 605.76,-165 599.76,-171 593.76,-171"/>
<text text-anchor="start" x="521.315" y="-155.8" font-family="Helvetica,sans-Serif" font-size="14.00">gini = 0.0</text>
<text text-anchor="start" x="511.984" y="-141.8" font-family="Helvetica,sans-Serif" font-size="14.00">samples = 2</text>
<text text-anchor="start" x="509.643" y="-127.8" font-family="Helvetica,sans-Serif" font-size="14.00">value = [2, 0]</text>
<text text-anchor="start" x="502" y="-113.8" font-family="Helvetica,sans-Serif" font-size="14.00">class = World 1</text>
</g>
<!-- 9&#45;&gt;13 -->
<g id="edge13" class="edge"><title>9&#45;&gt;13</title>
<path fill="none" stroke="black" d="M501.838,-213.769C509.008,-202.769 516.844,-190.747 524.069,-179.662"/>
<polygon fill="black" stroke="black" points="527.18,-181.299 529.708,-171.01 521.315,-177.476 527.18,-181.299"/>
</g>
<!-- 11 -->
<g id="node12" class="node"><title>11</title>
<path fill="none" stroke="black" d="M382.76,-64C382.76,-64 295.08,-64 295.08,-64 289.08,-64 283.08,-58 283.08,-52 283.08,-52 283.08,-12 283.08,-12 283.08,-6 289.08,-0 295.08,-0 295.08,-0 382.76,-0 382.76,-0 388.76,-0 394.76,-6 394.76,-12 394.76,-12 394.76,-52 394.76,-52 394.76,-58 388.76,-64 382.76,-64"/>
<text text-anchor="start" x="310.315" y="-48.8" font-family="Helvetica,sans-Serif" font-size="14.00">gini = 0.0</text>
<text text-anchor="start" x="300.984" y="-34.8" font-family="Helvetica,sans-Serif" font-size="14.00">samples = 2</text>
<text text-anchor="start" x="298.643" y="-20.8" font-family="Helvetica,sans-Serif" font-size="14.00">value = [0, 2]</text>
<text text-anchor="start" x="291" y="-6.8" font-family="Helvetica,sans-Serif" font-size="14.00">class = World 2</text>
</g>
<!-- 10&#45;&gt;11 -->
<g id="edge11" class="edge"><title>10&#45;&gt;11</title>
<path fill="none" stroke="black" d="M380.27,-99.7956C374.825,-91 369.021,-81.625 363.536,-72.765"/>
<polygon fill="black" stroke="black" points="366.422,-70.7776 358.183,-64.1172 360.471,-74.4621 366.422,-70.7776"/>
</g>
<!-- 12 -->
<g id="node13" class="node"><title>12</title>
<path fill="none" stroke="black" d="M512.76,-64C512.76,-64 425.08,-64 425.08,-64 419.08,-64 413.08,-58 413.08,-52 413.08,-52 413.08,-12 413.08,-12 413.08,-6 419.08,-0 425.08,-0 425.08,-0 512.76,-0 512.76,-0 518.76,-0 524.76,-6 524.76,-12 524.76,-12 524.76,-52 524.76,-52 524.76,-58 518.76,-64 512.76,-64"/>
<text text-anchor="start" x="440.315" y="-48.8" font-family="Helvetica,sans-Serif" font-size="14.00">gini = 0.0</text>
<text text-anchor="start" x="430.984" y="-34.8" font-family="Helvetica,sans-Serif" font-size="14.00">samples = 1</text>
<text text-anchor="start" x="428.643" y="-20.8" font-family="Helvetica,sans-Serif" font-size="14.00">value = [1, 0]</text>
<text text-anchor="start" x="421" y="-6.8" font-family="Helvetica,sans-Serif" font-size="14.00">class = World 1</text>
</g>
<!-- 10&#45;&gt;12 -->
<g id="edge12" class="edge"><title>10&#45;&gt;12</title>
<path fill="none" stroke="black" d="M427.57,-99.7956C433.015,-91 438.819,-81.625 444.303,-72.765"/>
<polygon fill="black" stroke="black" points="447.369,-74.4621 449.657,-64.1172 441.417,-70.7776 447.369,-74.4621"/>
</g>
<!-- 15 -->
<g id="node16" class="node"><title>15</title>
<path fill="none" stroke="black" d="M488.76,-513C488.76,-513 401.08,-513 401.08,-513 395.08,-513 389.08,-507 389.08,-501 389.08,-501 389.08,-461 389.08,-461 389.08,-455 395.08,-449 401.08,-449 401.08,-449 488.76,-449 488.76,-449 494.76,-449 500.76,-455 500.76,-461 500.76,-461 500.76,-501 500.76,-501 500.76,-507 494.76,-513 488.76,-513"/>
<text text-anchor="start" x="416.315" y="-497.8" font-family="Helvetica,sans-Serif" font-size="14.00">gini = 0.0</text>
<text text-anchor="start" x="403.091" y="-483.8" font-family="Helvetica,sans-Serif" font-size="14.00">samples = 15</text>
<text text-anchor="start" x="400.75" y="-469.8" font-family="Helvetica,sans-Serif" font-size="14.00">value = [0, 15]</text>
<text text-anchor="start" x="397" y="-455.8" font-family="Helvetica,sans-Serif" font-size="14.00">class = World 2</text>
</g>
<!-- 14&#45;&gt;15 -->
<g id="edge15" class="edge"><title>14&#45;&gt;15</title>
<path fill="none" stroke="black" d="M449.53,-555.769C448.877,-545.313 448.166,-533.935 447.502,-523.315"/>
<polygon fill="black" stroke="black" points="450.975,-522.772 446.858,-513.01 443.989,-523.209 450.975,-522.772"/>
</g>
<!-- 16 -->
<g id="node17" class="node"><title>16</title>
<path fill="none" stroke="black" d="M673.023,-520C673.023,-520 530.816,-520 530.816,-520 524.816,-520 518.816,-514 518.816,-508 518.816,-508 518.816,-454 518.816,-454 518.816,-448 524.816,-442 530.816,-442 530.816,-442 673.023,-442 673.023,-442 679.023,-442 685.023,-448 685.023,-454 685.023,-454 685.023,-508 685.023,-508 685.023,-514 679.023,-520 673.023,-520"/>
<text text-anchor="start" x="526.868" y="-504.8" font-family="Helvetica,sans-Serif" font-size="14.00">Milliseconds ≤ 150923.0</text>
<text text-anchor="start" x="573.315" y="-490.8" font-family="Helvetica,sans-Serif" font-size="14.00">gini = 0.5</text>
<text text-anchor="start" x="563.984" y="-476.8" font-family="Helvetica,sans-Serif" font-size="14.00">samples = 6</text>
<text text-anchor="start" x="561.643" y="-462.8" font-family="Helvetica,sans-Serif" font-size="14.00">value = [3, 3]</text>
<text text-anchor="start" x="554" y="-448.8" font-family="Helvetica,sans-Serif" font-size="14.00">class = World 1</text>
</g>
<!-- 14&#45;&gt;16 -->
<g id="edge16" class="edge"><title>14&#45;&gt;16</title>
<path fill="none" stroke="black" d="M503.122,-555.769C515.913,-546.218 529.735,-535.898 542.873,-526.089"/>
<polygon fill="black" stroke="black" points="545.03,-528.846 550.949,-520.058 540.842,-523.237 545.03,-528.846"/>
</g>
<!-- 17 -->
<g id="node18" class="node"><title>17</title>
<path fill="none" stroke="black" d="M580.76,-399C580.76,-399 493.08,-399 493.08,-399 487.08,-399 481.08,-393 481.08,-387 481.08,-387 481.08,-347 481.08,-347 481.08,-341 487.08,-335 493.08,-335 493.08,-335 580.76,-335 580.76,-335 586.76,-335 592.76,-341 592.76,-347 592.76,-347 592.76,-387 592.76,-387 592.76,-393 586.76,-399 580.76,-399"/>
<text text-anchor="start" x="508.315" y="-383.8" font-family="Helvetica,sans-Serif" font-size="14.00">gini = 0.0</text>
<text text-anchor="start" x="498.984" y="-369.8" font-family="Helvetica,sans-Serif" font-size="14.00">samples = 3</text>
<text text-anchor="start" x="496.643" y="-355.8" font-family="Helvetica,sans-Serif" font-size="14.00">value = [3, 0]</text>
<text text-anchor="start" x="489" y="-341.8" font-family="Helvetica,sans-Serif" font-size="14.00">class = World 1</text>
</g>
<!-- 16&#45;&gt;17 -->
<g id="edge17" class="edge"><title>16&#45;&gt;17</title>
<path fill="none" stroke="black" d="M579.732,-441.769C573.348,-430.769 566.371,-418.747 559.938,-407.662"/>
<polygon fill="black" stroke="black" points="562.964,-405.902 554.917,-399.01 556.909,-409.416 562.964,-405.902"/>
</g>
<!-- 18 -->
<g id="node19" class="node"><title>18</title>
<path fill="none" stroke="black" d="M710.76,-399C710.76,-399 623.08,-399 623.08,-399 617.08,-399 611.08,-393 611.08,-387 611.08,-387 611.08,-347 611.08,-347 611.08,-341 617.08,-335 623.08,-335 623.08,-335 710.76,-335 710.76,-335 716.76,-335 722.76,-341 722.76,-347 722.76,-347 722.76,-387 722.76,-387 722.76,-393 716.76,-399 710.76,-399"/>
<text text-anchor="start" x="638.315" y="-383.8" font-family="Helvetica,sans-Serif" font-size="14.00">gini = 0.0</text>
<text text-anchor="start" x="628.984" y="-369.8" font-family="Helvetica,sans-Serif" font-size="14.00">samples = 3</text>
<text text-anchor="start" x="626.643" y="-355.8" font-family="Helvetica,sans-Serif" font-size="14.00">value = [0, 3]</text>
<text text-anchor="start" x="619" y="-341.8" font-family="Helvetica,sans-Serif" font-size="14.00">class = World 2</text>
</g>
<!-- 16&#45;&gt;18 -->
<g id="edge18" class="edge"><title>16&#45;&gt;18</title>
<path fill="none" stroke="black" d="M624.107,-441.769C630.492,-430.769 637.468,-418.747 643.902,-407.662"/>
<polygon fill="black" stroke="black" points="646.931,-409.416 648.923,-399.01 640.876,-405.902 646.931,-409.416"/>
</g>
</g>
</svg>
