<?xml version="1.0" encoding="UTF-8" standalone="no"?>
<!DOCTYPE svg PUBLIC "-//W3C//DTD SVG 1.1//EN"
 "http://www.w3.org/Graphics/SVG/1.1/DTD/svg11.dtd">
<!-- Generated by graphviz version 2.38.0 (20140413.2041)
 -->
<!-- Title: Tree Pages: 1 -->
<svg width="711pt" height="756pt"
 viewBox="0.00 0.00 710.84 756.00" xmlns="http://www.w3.org/2000/svg" xmlns:xlink="http://www.w3.org/1999/xlink">
<g id="graph0" class="graph" transform="scale(1 1) rotate(0) translate(4 752)">
<title>Tree</title>
<polygon fill="white" stroke="none" points="-4,4 -4,-752 706.84,-752 706.84,4 -4,4"/>
<!-- 0 -->
<g id="node1" class="node"><title>0</title>
<path fill="none" stroke="black" d="M409.238,-748C409.238,-748 274.602,-748 274.602,-748 268.602,-748 262.602,-742 262.602,-736 262.602,-736 262.602,-682 262.602,-682 262.602,-676 268.602,-670 274.602,-670 274.602,-670 409.238,-670 409.238,-670 415.238,-670 421.238,-676 421.238,-682 421.238,-682 421.238,-736 421.238,-736 421.238,-742 415.238,-748 409.238,-748"/>
<text text-anchor="start" x="270.761" y="-732.8" font-family="Helvetica,sans-Serif" font-size="14.00">Milliseconds ≤ 53475.0</text>
<text text-anchor="start" x="305.529" y="-718.8" font-family="Helvetica,sans-Serif" font-size="14.00">gini = 0.498</text>
<text text-anchor="start" x="300.091" y="-704.8" font-family="Helvetica,sans-Serif" font-size="14.00">samples = 43</text>
<text text-anchor="start" x="293.856" y="-690.8" font-family="Helvetica,sans-Serif" font-size="14.00">value = [20, 23]</text>
<text text-anchor="start" x="294" y="-676.8" font-family="Helvetica,sans-Serif" font-size="14.00">class = World 2</text>
</g>
<!-- 1 -->
<g id="node2" class="node"><title>1</title>
<path fill="none" stroke="black" d="M319.238,-634C319.238,-634 184.602,-634 184.602,-634 178.602,-634 172.602,-628 172.602,-622 172.602,-622 172.602,-568 172.602,-568 172.602,-562 178.602,-556 184.602,-556 184.602,-556 319.238,-556 319.238,-556 325.238,-556 331.238,-562 331.238,-568 331.238,-568 331.238,-622 331.238,-622 331.238,-628 325.238,-634 319.238,-634"/>
<text text-anchor="start" x="180.761" y="-618.8" font-family="Helvetica,sans-Serif" font-size="14.00">Milliseconds ≤ 40335.0</text>
<text text-anchor="start" x="215.529" y="-604.8" font-family="Helvetica,sans-Serif" font-size="14.00">gini = 0.351</text>
<text text-anchor="start" x="210.091" y="-590.8" font-family="Helvetica,sans-Serif" font-size="14.00">samples = 22</text>
<text text-anchor="start" x="207.75" y="-576.8" font-family="Helvetica,sans-Serif" font-size="14.00">value = [17, 5]</text>
<text text-anchor="start" x="204" y="-562.8" font-family="Helvetica,sans-Serif" font-size="14.00">class = World 1</text>
</g>
<!-- 0&#45;&gt;1 -->
<g id="edge1" class="edge"><title>0&#45;&gt;1</title>
<path fill="none" stroke="black" d="M311.199,-669.769C304.031,-660.849 296.323,-651.257 288.915,-642.038"/>
<polygon fill="black" stroke="black" points="291.495,-639.661 282.503,-634.058 286.038,-644.046 291.495,-639.661"/>
<text text-anchor="middle" x="279.796" y="-654.712" font-family="Helvetica,sans-Serif" font-size="14.00">True</text>
</g>
<!-- 14 -->
<g id="node15" class="node"><title>14</title>
<path fill="none" stroke="black" d="M503.023,-634C503.023,-634 360.816,-634 360.816,-634 354.816,-634 348.816,-628 348.816,-622 348.816,-622 348.816,-568 348.816,-568 348.816,-562 354.816,-556 360.816,-556 360.816,-556 503.023,-556 503.023,-556 509.023,-556 515.023,-562 515.023,-568 515.023,-568 515.023,-622 515.023,-622 515.023,-628 509.023,-634 503.023,-634"/>
<text text-anchor="start" x="356.868" y="-618.8" font-family="Helvetica,sans-Serif" font-size="14.00">Milliseconds ≤ 103308.5</text>
<text text-anchor="start" x="395.529" y="-604.8" font-family="Helvetica,sans-Serif" font-size="14.00">gini = 0.245</text>
<text text-anchor="start" x="390.091" y="-590.8" font-family="Helvetica,sans-Serif" font-size="14.00">samples = 21</text>
<text text-anchor="start" x="387.75" y="-576.8" font-family="Helvetica,sans-Serif" font-size="14.00">value = [3, 18]</text>
<text text-anchor="start" x="384" y="-562.8" font-family="Helvetica,sans-Serif" font-size="14.00">class = World 2</text>
</g>
<!-- 0&#45;&gt;14 -->
<g id="edge14" class="edge"><title>0&#45;&gt;14</title>
<path fill="none" stroke="black" d="M372.641,-669.769C379.809,-660.849 387.517,-651.257 394.925,-642.038"/>
<polygon fill="black" stroke="black" points="397.802,-644.046 401.337,-634.058 392.345,-639.661 397.802,-644.046"/>
<text text-anchor="middle" x="404.044" y="-654.712" font-family="Helvetica,sans-Serif" font-size="14.00">False</text>
</g>
<!-- 2 -->
<g id="node3" class="node"><title>2</title>
<path fill="none" stroke="black" d="M149.76,-513C149.76,-513 62.08,-513 62.08,-513 56.08,-513 50.08,-507 50.08,-501 50.08,-501 50.08,-461 50.08,-461 50.08,-455 56.08,-449 62.08,-449 62.08,-449 149.76,-449 149.76,-449 155.76,-449 161.76,-455 161.76,-461 161.76,-461 161.76,-501 161.76,-501 161.76,-507 155.76,-513 149.76,-513"/>
<text text-anchor="start" x="77.3149" y="-497.8" font-family="Helvetica,sans-Serif" font-size="14.00">gini = 0.0</text>
<text text-anchor="start" x="67.9839" y="-483.8" font-family="Helvetica,sans-Serif" font-size="14.00">samples = 9</text>
<text text-anchor="start" x="65.6426" y="-469.8" font-family="Helvetica,sans-Serif" font-size="14.00">value = [9, 0]</text>
<text text-anchor="start" x="58" y="-455.8" font-family="Helvetica,sans-Serif" font-size="14.00">class = World 1</text>
</g>
<!-- 1&#45;&gt;2 -->
<g id="edge2" class="edge"><title>1&#45;&gt;2</title>
<path fill="none" stroke="black" d="M202.083,-555.769C186.749,-544.006 169.894,-531.076 154.636,-519.371"/>
<polygon fill="black" stroke="black" points="156.408,-516.32 146.344,-513.01 152.148,-521.874 156.408,-516.32"/>
</g>
<!-- 3 -->
<g id="node4" class="node"><title>3</title>
<path fill="none" stroke="black" d="M326.238,-520C326.238,-520 191.602,-520 191.602,-520 185.602,-520 179.602,-514 179.602,-508 179.602,-508 179.602,-454 179.602,-454 179.602,-448 185.602,-442 191.602,-442 191.602,-442 326.238,-442 326.238,-442 332.238,-442 338.238,-448 338.238,-454 338.238,-454 338.238,-508 338.238,-508 338.238,-514 332.238,-520 326.238,-520"/>
<text text-anchor="start" x="187.761" y="-504.8" font-family="Helvetica,sans-Serif" font-size="14.00">Milliseconds ≤ 43979.0</text>
<text text-anchor="start" x="222.529" y="-490.8" font-family="Helvetica,sans-Serif" font-size="14.00">gini = 0.473</text>
<text text-anchor="start" x="217.091" y="-476.8" font-family="Helvetica,sans-Serif" font-size="14.00">samples = 13</text>
<text text-anchor="start" x="218.643" y="-462.8" font-family="Helvetica,sans-Serif" font-size="14.00">value = [8, 5]</text>
<text text-anchor="start" x="211" y="-448.8" font-family="Helvetica,sans-Serif" font-size="14.00">class = World 1</text>
</g>
<!-- 1&#45;&gt;3 -->
<g id="edge3" class="edge"><title>1&#45;&gt;3</title>
<path fill="none" stroke="black" d="M254.309,-555.769C254.822,-547.57 255.37,-538.803 255.902,-530.28"/>
<polygon fill="black" stroke="black" points="259.411,-530.257 256.541,-520.058 252.424,-529.821 259.411,-530.257"/>
</g>
<!-- 4 -->
<g id="node5" class="node"><title>4</title>
<path fill="none" stroke="black" d="M229.76,-406C229.76,-406 142.08,-406 142.08,-406 136.08,-406 130.08,-400 130.08,-394 130.08,-394 130.08,-340 130.08,-340 130.08,-334 136.08,-328 142.08,-328 142.08,-328 229.76,-328 229.76,-328 235.76,-328 241.76,-334 241.76,-340 241.76,-340 241.76,-394 241.76,-394 241.76,-400 235.76,-406 229.76,-406"/>
<text text-anchor="start" x="149.402" y="-390.8" font-family="Helvetica,sans-Serif" font-size="14.00">Errors ≤ 0.5</text>
<text text-anchor="start" x="149.529" y="-376.8" font-family="Helvetica,sans-Serif" font-size="14.00">gini = 0.375</text>
<text text-anchor="start" x="147.984" y="-362.8" font-family="Helvetica,sans-Serif" font-size="14.00">samples = 4</text>
<text text-anchor="start" x="145.643" y="-348.8" font-family="Helvetica,sans-Serif" font-size="14.00">value = [1, 3]</text>
<text text-anchor="start" x="138" y="-334.8" font-family="Helvetica,sans-Serif" font-size="14.00">class = World 2</text>
</g>
<!-- 3&#45;&gt;4 -->
<g id="edge4" class="edge"><title>3&#45;&gt;4</title>
<path fill="none" stroke="black" d="M234.002,-441.769C228.305,-433.029 222.188,-423.645 216.291,-414.597"/>
<polygon fill="black" stroke="black" points="219.119,-412.525 210.726,-406.058 213.254,-416.347 219.119,-412.525"/>
</g>
<!-- 7 -->
<g id="node8" class="node"><title>7</title>
<path fill="none" stroke="black" d="M359.76,-406C359.76,-406 272.08,-406 272.08,-406 266.08,-406 260.08,-400 260.08,-394 260.08,-394 260.08,-340 260.08,-340 260.08,-334 266.08,-328 272.08,-328 272.08,-328 359.76,-328 359.76,-328 365.76,-328 371.76,-334 371.76,-340 371.76,-340 371.76,-394 371.76,-394 371.76,-400 365.76,-406 359.76,-406"/>
<text text-anchor="start" x="270.061" y="-390.8" font-family="Helvetica,sans-Serif" font-size="14.00">MPDC ≤ 3.024</text>
<text text-anchor="start" x="279.529" y="-376.8" font-family="Helvetica,sans-Serif" font-size="14.00">gini = 0.346</text>
<text text-anchor="start" x="277.984" y="-362.8" font-family="Helvetica,sans-Serif" font-size="14.00">samples = 9</text>
<text text-anchor="start" x="275.643" y="-348.8" font-family="Helvetica,sans-Serif" font-size="14.00">value = [7, 2]</text>
<text text-anchor="start" x="268" y="-334.8" font-family="Helvetica,sans-Serif" font-size="14.00">class = World 1</text>
</g>
<!-- 3&#45;&gt;7 -->
<g id="edge7" class="edge"><title>3&#45;&gt;7</title>
<path fill="none" stroke="black" d="M278.377,-441.769C282.733,-433.209 287.404,-424.031 291.92,-415.157"/>
<polygon fill="black" stroke="black" points="295.134,-416.558 296.551,-406.058 288.896,-413.383 295.134,-416.558"/>
</g>
<!-- 5 -->
<g id="node6" class="node"><title>5</title>
<path fill="none" stroke="black" d="M99.7599,-285C99.7599,-285 12.08,-285 12.08,-285 6.07996,-285 0.0799636,-279 0.0799636,-273 0.0799636,-273 0.0799636,-233 0.0799636,-233 0.0799636,-227 6.07996,-221 12.08,-221 12.08,-221 99.7599,-221 99.7599,-221 105.76,-221 111.76,-227 111.76,-233 111.76,-233 111.76,-273 111.76,-273 111.76,-279 105.76,-285 99.7599,-285"/>
<text text-anchor="start" x="27.3149" y="-269.8" font-family="Helvetica,sans-Serif" font-size="14.00">gini = 0.0</text>
<text text-anchor="start" x="17.9839" y="-255.8" font-family="Helvetica,sans-Serif" font-size="14.00">samples = 3</text>
<text text-anchor="start" x="15.6426" y="-241.8" font-family="Helvetica,sans-Serif" font-size="14.00">value = [0, 3]</text>
<text text-anchor="start" x="8" y="-227.8" font-family="Helvetica,sans-Serif" font-size="14.00">class = World 2</text>
</g>
<!-- 4&#45;&gt;5 -->
<g id="edge5" class="edge"><title>4&#45;&gt;5</title>
<path fill="none" stroke="black" d="M141.545,-327.769C128.018,-316.115 113.161,-303.315 99.6752,-291.697"/>
<polygon fill="black" stroke="black" points="101.774,-288.886 91.9137,-285.01 97.2053,-294.189 101.774,-288.886"/>
</g>
<!-- 6 -->
<g id="node7" class="node"><title>6</title>
<path fill="none" stroke="black" d="M229.76,-285C229.76,-285 142.08,-285 142.08,-285 136.08,-285 130.08,-279 130.08,-273 130.08,-273 130.08,-233 130.08,-233 130.08,-227 136.08,-221 142.08,-221 142.08,-221 229.76,-221 229.76,-221 235.76,-221 241.76,-227 241.76,-233 241.76,-233 241.76,-273 241.76,-273 241.76,-279 235.76,-285 229.76,-285"/>
<text text-anchor="start" x="157.315" y="-269.8" font-family="Helvetica,sans-Serif" font-size="14.00">gini = 0.0</text>
<text text-anchor="start" x="147.984" y="-255.8" font-family="Helvetica,sans-Serif" font-size="14.00">samples = 1</text>
<text text-anchor="start" x="145.643" y="-241.8" font-family="Helvetica,sans-Serif" font-size="14.00">value = [1, 0]</text>
<text text-anchor="start" x="138" y="-227.8" font-family="Helvetica,sans-Serif" font-size="14.00">class = World 1</text>
</g>
<!-- 4&#45;&gt;6 -->
<g id="edge6" class="edge"><title>4&#45;&gt;6</title>
<path fill="none" stroke="black" d="M185.92,-327.769C185.92,-317.313 185.92,-305.935 185.92,-295.315"/>
<polygon fill="black" stroke="black" points="189.42,-295.01 185.92,-285.01 182.42,-295.01 189.42,-295.01"/>
</g>
<!-- 8 -->
<g id="node9" class="node"><title>8</title>
<path fill="none" stroke="black" d="M359.76,-285C359.76,-285 272.08,-285 272.08,-285 266.08,-285 260.08,-279 260.08,-273 260.08,-273 260.08,-233 260.08,-233 260.08,-227 266.08,-221 272.08,-221 272.08,-221 359.76,-221 359.76,-221 365.76,-221 371.76,-227 371.76,-233 371.76,-233 371.76,-273 371.76,-273 371.76,-279 365.76,-285 359.76,-285"/>
<text text-anchor="start" x="287.315" y="-269.8" font-family="Helvetica,sans-Serif" font-size="14.00">gini = 0.0</text>
<text text-anchor="start" x="277.984" y="-255.8" font-family="Helvetica,sans-Serif" font-size="14.00">samples = 4</text>
<text text-anchor="start" x="275.643" y="-241.8" font-family="Helvetica,sans-Serif" font-size="14.00">value = [4, 0]</text>
<text text-anchor="start" x="268" y="-227.8" font-family="Helvetica,sans-Serif" font-size="14.00">class = World 1</text>
</g>
<!-- 7&#45;&gt;8 -->
<g id="edge8" class="edge"><title>7&#45;&gt;8</title>
<path fill="none" stroke="black" d="M315.92,-327.769C315.92,-317.313 315.92,-305.935 315.92,-295.315"/>
<polygon fill="black" stroke="black" points="319.42,-295.01 315.92,-285.01 312.42,-295.01 319.42,-295.01"/>
</g>
<!-- 9 -->
<g id="node10" class="node"><title>9</title>
<path fill="none" stroke="black" d="M536.238,-292C536.238,-292 401.602,-292 401.602,-292 395.602,-292 389.602,-286 389.602,-280 389.602,-280 389.602,-226 389.602,-226 389.602,-220 395.602,-214 401.602,-214 401.602,-214 536.238,-214 536.238,-214 542.238,-214 548.238,-220 548.238,-226 548.238,-226 548.238,-280 548.238,-280 548.238,-286 542.238,-292 536.238,-292"/>
<text text-anchor="start" x="397.761" y="-276.8" font-family="Helvetica,sans-Serif" font-size="14.00">Milliseconds ≤ 47770.0</text>
<text text-anchor="start" x="436.422" y="-262.8" font-family="Helvetica,sans-Serif" font-size="14.00">gini = 0.48</text>
<text text-anchor="start" x="430.984" y="-248.8" font-family="Helvetica,sans-Serif" font-size="14.00">samples = 5</text>
<text text-anchor="start" x="428.643" y="-234.8" font-family="Helvetica,sans-Serif" font-size="14.00">value = [3, 2]</text>
<text text-anchor="start" x="421" y="-220.8" font-family="Helvetica,sans-Serif" font-size="14.00">class = World 1</text>
</g>
<!-- 7&#45;&gt;9 -->
<g id="edge9" class="edge"><title>7&#45;&gt;9</title>
<path fill="none" stroke="black" d="M368.146,-327.769C381.193,-318.218 395.292,-307.898 408.692,-298.089"/>
<polygon fill="black" stroke="black" points="410.928,-300.789 416.929,-292.058 406.793,-295.141 410.928,-300.789"/>
</g>
<!-- 10 -->
<g id="node11" class="node"><title>10</title>
<path fill="none" stroke="black" d="M447.76,-178C447.76,-178 360.08,-178 360.08,-178 354.08,-178 348.08,-172 348.08,-166 348.08,-166 348.08,-112 348.08,-112 348.08,-106 354.08,-100 360.08,-100 360.08,-100 447.76,-100 447.76,-100 453.76,-100 459.76,-106 459.76,-112 459.76,-112 459.76,-166 459.76,-166 459.76,-172 453.76,-178 447.76,-178"/>
<text text-anchor="start" x="358.061" y="-162.8" font-family="Helvetica,sans-Serif" font-size="14.00">MPDC ≤ 5.216</text>
<text text-anchor="start" x="367.529" y="-148.8" font-family="Helvetica,sans-Serif" font-size="14.00">gini = 0.444</text>
<text text-anchor="start" x="365.984" y="-134.8" font-family="Helvetica,sans-Serif" font-size="14.00">samples = 3</text>
<text text-anchor="start" x="363.643" y="-120.8" font-family="Helvetica,sans-Serif" font-size="14.00">value = [1, 2]</text>
<text text-anchor="start" x="356" y="-106.8" font-family="Helvetica,sans-Serif" font-size="14.00">class = World 2</text>
</g>
<!-- 9&#45;&gt;10 -->
<g id="edge10" class="edge"><title>9&#45;&gt;10</title>
<path fill="none" stroke="black" d="M446.732,-213.769C441.712,-205.119 436.326,-195.838 431.126,-186.877"/>
<polygon fill="black" stroke="black" points="434.054,-184.951 426.007,-178.058 428,-188.464 434.054,-184.951"/>
</g>
<!-- 13 -->
<g id="node14" class="node"><title>13</title>
<path fill="none" stroke="black" d="M577.76,-171C577.76,-171 490.08,-171 490.08,-171 484.08,-171 478.08,-165 478.08,-159 478.08,-159 478.08,-119 478.08,-119 478.08,-113 484.08,-107 490.08,-107 490.08,-107 577.76,-107 577.76,-107 583.76,-107 589.76,-113 589.76,-119 589.76,-119 589.76,-159 589.76,-159 589.76,-165 583.76,-171 577.76,-171"/>
<text text-anchor="start" x="505.315" y="-155.8" font-family="Helvetica,sans-Serif" font-size="14.00">gini = 0.0</text>
<text text-anchor="start" x="495.984" y="-141.8" font-family="Helvetica,sans-Serif" font-size="14.00">samples = 2</text>
<text text-anchor="start" x="493.643" y="-127.8" font-family="Helvetica,sans-Serif" font-size="14.00">value = [2, 0]</text>
<text text-anchor="start" x="486" y="-113.8" font-family="Helvetica,sans-Serif" font-size="14.00">class = World 1</text>
</g>
<!-- 9&#45;&gt;13 -->
<g id="edge13" class="edge"><title>9&#45;&gt;13</title>
<path fill="none" stroke="black" d="M491.107,-213.769C497.492,-202.769 504.468,-190.747 510.902,-179.662"/>
<polygon fill="black" stroke="black" points="513.931,-181.416 515.923,-171.01 507.876,-177.902 513.931,-181.416"/>
</g>
<!-- 11 -->
<g id="node12" class="node"><title>11</title>
<path fill="none" stroke="black" d="M382.76,-64C382.76,-64 295.08,-64 295.08,-64 289.08,-64 283.08,-58 283.08,-52 283.08,-52 283.08,-12 283.08,-12 283.08,-6 289.08,-0 295.08,-0 295.08,-0 382.76,-0 382.76,-0 388.76,-0 394.76,-6 394.76,-12 394.76,-12 394.76,-52 394.76,-52 394.76,-58 388.76,-64 382.76,-64"/>
<text text-anchor="start" x="310.315" y="-48.8" font-family="Helvetica,sans-Serif" font-size="14.00">gini = 0.0</text>
<text text-anchor="start" x="300.984" y="-34.8" font-family="Helvetica,sans-Serif" font-size="14.00">samples = 2</text>
<text text-anchor="start" x="298.643" y="-20.8" font-family="Helvetica,sans-Serif" font-size="14.00">value = [0, 2]</text>
<text text-anchor="start" x="291" y="-6.8" font-family="Helvetica,sans-Serif" font-size="14.00">class = World 2</text>
</g>
<!-- 10&#45;&gt;11 -->
<g id="edge11" class="edge"><title>10&#45;&gt;11</title>
<path fill="none" stroke="black" d="M380.27,-99.7956C374.825,-91 369.021,-81.625 363.536,-72.765"/>
<polygon fill="black" stroke="black" points="366.422,-70.7776 358.183,-64.1172 360.471,-74.4621 366.422,-70.7776"/>
</g>
<!-- 12 -->
<g id="node13" class="node"><title>12</title>
<path fill="none" stroke="black" d="M512.76,-64C512.76,-64 425.08,-64 425.08,-64 419.08,-64 413.08,-58 413.08,-52 413.08,-52 413.08,-12 413.08,-12 413.08,-6 419.08,-0 425.08,-0 425.08,-0 512.76,-0 512.76,-0 518.76,-0 524.76,-6 524.76,-12 524.76,-12 524.76,-52 524.76,-52 524.76,-58 518.76,-64 512.76,-64"/>
<text text-anchor="start" x="440.315" y="-48.8" font-family="Helvetica,sans-Serif" font-size="14.00">gini = 0.0</text>
<text text-anchor="start" x="430.984" y="-34.8" font-family="Helvetica,sans-Serif" font-size="14.00">samples = 1</text>
<text text-anchor="start" x="428.643" y="-20.8" font-family="Helvetica,sans-Serif" font-size="14.00">value = [1, 0]</text>
<text text-anchor="start" x="421" y="-6.8" font-family="Helvetica,sans-Serif" font-size="14.00">class = World 1</text>
</g>
<!-- 10&#45;&gt;12 -->
<g id="edge12" class="edge"><title>10&#45;&gt;12</title>
<path fill="none" stroke="black" d="M427.57,-99.7956C433.015,-91 438.819,-81.625 444.303,-72.765"/>
<polygon fill="black" stroke="black" points="447.369,-74.4621 449.657,-64.1172 441.417,-70.7776 447.369,-74.4621"/>
</g>
<!-- 15 -->
<g id="node16" class="node"><title>15</title>
<path fill="none" stroke="black" d="M468.76,-513C468.76,-513 381.08,-513 381.08,-513 375.08,-513 369.08,-507 369.08,-501 369.08,-501 369.08,-461 369.08,-461 369.08,-455 375.08,-449 381.08,-449 381.08,-449 468.76,-449 468.76,-449 474.76,-449 480.76,-455 480.76,-461 480.76,-461 480.76,-501 480.76,-501 480.76,-507 474.76,-513 468.76,-513"/>
<text text-anchor="start" x="396.315" y="-497.8" font-family="Helvetica,sans-Serif" font-size="14.00">gini = 0.0</text>
<text text-anchor="start" x="383.091" y="-483.8" font-family="Helvetica,sans-Serif" font-size="14.00">samples = 15</text>
<text text-anchor="start" x="380.75" y="-469.8" font-family="Helvetica,sans-Serif" font-size="14.00">value = [0, 15]</text>
<text text-anchor="start" x="377" y="-455.8" font-family="Helvetica,sans-Serif" font-size="14.00">class = World 2</text>
</g>
<!-- 14&#45;&gt;15 -->
<g id="edge15" class="edge"><title>14&#45;&gt;15</title>
<path fill="none" stroke="black" d="M429.53,-555.769C428.877,-545.313 428.166,-533.935 427.502,-523.315"/>
<polygon fill="black" stroke="black" points="430.975,-522.772 426.858,-513.01 423.989,-523.209 430.975,-522.772"/>
</g>
<!-- 16 -->
<g id="node17" class="node"><title>16</title>
<path fill="none" stroke="black" d="M653.023,-520C653.023,-520 510.816,-520 510.816,-520 504.816,-520 498.816,-514 498.816,-508 498.816,-508 498.816,-454 498.816,-454 498.816,-448 504.816,-442 510.816,-442 510.816,-442 653.023,-442 653.023,-442 659.023,-442 665.023,-448 665.023,-454 665.023,-454 665.023,-508 665.023,-508 665.023,-514 659.023,-520 653.023,-520"/>
<text text-anchor="start" x="506.868" y="-504.8" font-family="Helvetica,sans-Serif" font-size="14.00">Milliseconds ≤ 150923.0</text>
<text text-anchor="start" x="553.315" y="-490.8" font-family="Helvetica,sans-Serif" font-size="14.00">gini = 0.5</text>
<text text-anchor="start" x="543.984" y="-476.8" font-family="Helvetica,sans-Serif" font-size="14.00">samples = 6</text>
<text text-anchor="start" x="541.643" y="-462.8" font-family="Helvetica,sans-Serif" font-size="14.00">value = [3, 3]</text>
<text text-anchor="start" x="534" y="-448.8" font-family="Helvetica,sans-Serif" font-size="14.00">class = World 1</text>
</g>
<!-- 14&#45;&gt;16 -->
<g id="edge16" class="edge"><title>14&#45;&gt;16</title>
<path fill="none" stroke="black" d="M483.122,-555.769C495.913,-546.218 509.735,-535.898 522.873,-526.089"/>
<polygon fill="black" stroke="black" points="525.03,-528.846 530.949,-520.058 520.842,-523.237 525.03,-528.846"/>
</g>
<!-- 17 -->
<g id="node18" class="node"><title>17</title>
<path fill="none" stroke="black" d="M560.76,-399C560.76,-399 473.08,-399 473.08,-399 467.08,-399 461.08,-393 461.08,-387 461.08,-387 461.08,-347 461.08,-347 461.08,-341 467.08,-335 473.08,-335 473.08,-335 560.76,-335 560.76,-335 566.76,-335 572.76,-341 572.76,-347 572.76,-347 572.76,-387 572.76,-387 572.76,-393 566.76,-399 560.76,-399"/>
<text text-anchor="start" x="488.315" y="-383.8" font-family="Helvetica,sans-Serif" font-size="14.00">gini = 0.0</text>
<text text-anchor="start" x="478.984" y="-369.8" font-family="Helvetica,sans-Serif" font-size="14.00">samples = 3</text>
<text text-anchor="start" x="476.643" y="-355.8" font-family="Helvetica,sans-Serif" font-size="14.00">value = [3, 0]</text>
<text text-anchor="start" x="469" y="-341.8" font-family="Helvetica,sans-Serif" font-size="14.00">class = World 1</text>
</g>
<!-- 16&#45;&gt;17 -->
<g id="edge17" class="edge"><title>16&#45;&gt;17</title>
<path fill="none" stroke="black" d="M559.732,-441.769C553.348,-430.769 546.371,-418.747 539.938,-407.662"/>
<polygon fill="black" stroke="black" points="542.964,-405.902 534.917,-399.01 536.909,-409.416 542.964,-405.902"/>
</g>
<!-- 18 -->
<g id="node19" class="node"><title>18</title>
<path fill="none" stroke="black" d="M690.76,-399C690.76,-399 603.08,-399 603.08,-399 597.08,-399 591.08,-393 591.08,-387 591.08,-387 591.08,-347 591.08,-347 591.08,-341 597.08,-335 603.08,-335 603.08,-335 690.76,-335 690.76,-335 696.76,-335 702.76,-341 702.76,-347 702.76,-347 702.76,-387 702.76,-387 702.76,-393 696.76,-399 690.76,-399"/>
<text text-anchor="start" x="618.315" y="-383.8" font-family="Helvetica,sans-Serif" font-size="14.00">gini = 0.0</text>
<text text-anchor="start" x="608.984" y="-369.8" font-family="Helvetica,sans-Serif" font-size="14.00">samples = 3</text>
<text text-anchor="start" x="606.643" y="-355.8" font-family="Helvetica,sans-Serif" font-size="14.00">value = [0, 3]</text>
<text text-anchor="start" x="599" y="-341.8" font-family="Helvetica,sans-Serif" font-size="14.00">class = World 2</text>
</g>
<!-- 16&#45;&gt;18 -->
<g id="edge18" class="edge"><title>16&#45;&gt;18</title>
<path fill="none" stroke="black" d="M604.107,-441.769C610.492,-430.769 617.468,-418.747 623.902,-407.662"/>
<polygon fill="black" stroke="black" points="626.931,-409.416 628.923,-399.01 620.876,-405.902 626.931,-409.416"/>
</g>
</g>
</svg>
